{"title":"The World's End 2013 WEBRip Blurred and Cropped AC3 XviD-SSDD","uid":8886824,"size":811587649,"categoryP":"video","categoryS":"movies","magnet":"?xt=urn:btih:35f590e027b3b19780e71c946b1379c1de9799ec&amp;dn=The+World%27s+End+2013+WEBRip+Blurred+and+Cropped+AC3+XviD-SSDD&amp;tr=udp%3A%2F%2Ftracker.openbittorrent.com%3A80&amp;tr=udp%3A%2F%2Fopen.demonii.com%3A1337&amp;tr=udp%3A%2F%2Ftracker.coppersurfer.tk%3A6969&amp;tr=udp%3A%2F%2Fexodus.desync.com%3A6969","seeders":3,"leechers":0,"uploader":"TeX","files":2,"time":1378481426,"description":"[img]http://i2.cdnds.net/13/19/618x464/movies-the-worlds-end-poster.jpg[/img]\n\nMDB Link - http://www.imdb.com/title/tt1213663/\n\nSource - SmY (Thumbs Up + Respect)\n\nNOTES - Enjoy. Yes you are not seeing things this is an XviD (.avi) from SSDD, we blurred both water marks and cropped the bottom line of subs, hope you enjoy. Did come out oversized due to my limited math lol but who cares.\n\nGeneral\nComplete name : The World's End 2013 WEBRip Blurred and Cropped AC3 XviD-SSDD.avi\nFormat : AVI\nFormat/Info : Audio Video Interleave\nFile size : 773 MiB\nDuration : 1h 44mn\nOverall bit rate : 1 035 Kbps\n\nVideo\nID : 0\nFormat : MPEG-4 Visual\nFormat profile : Advanced Simple@L5\nFormat settings, BVOP : 2\nFormat settings, QPel : No\nFormat settings, GMC : No warppoints\nFormat settings, Matrix : Default (H.263)\nMuxing mode : Packed bitstream\nCodec ID : XVID\nCodec ID/Hint : XviD\nDuration : 1h 44mn\nBit rate : 898 Kbps\nWidth : 720 pixels\nHeight : 264 pixels\nDisplay aspect ratio : 2.727\nFrame rate : 25.000 fps\nColor space : YUV\nChroma subsampling : 4:2:0\nBit depth : 8 bits\nScan type : Progressive\nCompression mode : Lossy\nBits/(Pixel*Frame) : 0.189\nStream size : 671 MiB (87%)\n\nAudio\nID : 1\nFormat : AC-3\nFormat/Info : Audio Coding 3\nMode extension : CM (complete main)\nFormat settings, Endianness : Big\nCodec ID : 2000\nDuration : 1h 44mn\nBit rate mode : Constant\nBit rate : 128 Kbps\nChannel(s) : 2 channels\nChannel positions : Front: L R\nSampling rate : 44.1 KHz\nBit depth : 16 bits\nCompression mode : Lossy\nStream size : 95.5 MiB (12%)\n\n\n[img]http://lookpic.com/O/i2/1963/BFCRJwG.png[/img]\n[img]http://lookpic.com/O/i2/570/6EspqyUe.png[/img]","torrent":{"xt":"urn:btih:35f590e027b3b19780e71c946b1379c1de9799ec","amp;dn":"The+World%27s+End+2013+WEBRip+Blurred+and+Cropped+AC3+XviD-SSDD","amp;tr":["udp%3A%2F%2Ftracker.openbittorrent.com%3A80","udp%3A%2F%2Fopen.demonii.com%3A1337","udp%3A%2F%2Ftracker.coppersurfer.tk%3A6969","udp%3A%2F%2Fexodus.desync.com%3A6969"],"infoHash":"35f590e027b3b19780e71c946b1379c1de9799ec","infoHashBuffer":{"type":"Buffer","data":[53,245,144,224,39,179,177,151,128,231,28,148,107,19,121,193,222,151,153,236]},"announce":[],"urlList":[]}}